<?xml version="1.0" encoding="UTF-8" standalone="no"?>
<!DOCTYPE svg PUBLIC "-//W3C//DTD SVG 1.1//EN" "http://www.w3.org/Graphics/SVG/1.1/DTD/svg11.dtd">
<svg width="100%" height="100%" viewBox="0 0 1589 508" version="1.1" xmlns="http://www.w3.org/2000/svg" xmlns:xlink="http://www.w3.org/1999/xlink" xml:space="preserve" xmlns:serif="http://www.serif.com/" style="fill-rule:evenodd;clip-rule:evenodd;stroke-linejoin:round;stroke-miterlimit:2;">
    <g transform="matrix(0.534953,0,0,0.534953,-241.488181,-19.931917)">
        <path d="M527.789,944.469C479.134,856.769 451.42,755.874 451.42,648.557C451.42,311.172 725.333,37.259 1062.717,37.259C1351.868,37.259 1594.398,238.452 1657.834,508.363C1649.889,502.494 1641.207,497.204 1631.775,492.53C1563.292,242.541 1334.315,58.61 1062.717,58.61C737.117,58.61 472.77,322.956 472.77,648.557C472.77,756.367 501.752,857.463 552.344,944.469L527.789,944.469ZM604.321,944.469C549.133,859.203 517.081,757.593 517.081,648.557C517.081,347.412 761.572,102.92 1062.717,102.92C1303.144,102.92 1507.46,258.761 1580.076,474.852C1572.379,473.182 1564.361,471.796 1556.018,470.706C1483.114,268.772 1289.657,124.271 1062.717,124.271C773.356,124.271 538.432,359.196 538.432,648.557C538.432,758.308 572.228,860.229 629.972,944.469L604.321,944.469ZM684.932,944.469C620.941,862.915 582.768,760.159 582.768,648.557C582.768,383.665 797.826,168.607 1062.717,168.607C1263.657,168.607 1435.922,292.36 1507.387,467.742C1499.636,467.75 1491.987,467.906 1484.439,468.21C1414.33,304.653 1251.812,189.958 1062.717,189.958C809.61,189.958 604.119,395.449 604.119,648.557C604.119,761.29 644.884,864.577 712.465,944.469L684.932,944.469ZM772.937,944.469C696.145,869.257 648.466,764.431 648.466,648.557C648.466,419.925 834.086,234.306 1062.717,234.306C1228.272,234.306 1371.274,331.634 1437.578,472.144C1422.445,474.065 1407.762,476.433 1393.531,479.242C1331.908,359.185 1206.839,276.96 1062.717,276.96C857.627,276.96 691.12,443.467 691.12,648.557C691.12,769.244 748.779,876.571 838.03,944.469L772.937,944.469Z" style="fill:rgb(35,57,116);"/>
    </g>
    <g transform="matrix(7.001388,0,0,6.203819,-4301.790073,-2224.454214)">
        <path d="M647.266,436.785L647.266,399.785L653.811,399.785L653.811,436.785L647.266,436.785ZM665.173,425.973L662.7,436.785L656.315,436.785L665.25,399.785L674.961,399.785L683.896,436.785L677.436,436.785L674.943,425.973L665.173,425.973ZM673.494,419.689L670.038,404.701L666.61,419.689L673.494,419.689ZM686.387,436.785L686.387,400.401C687.73,400.077 689.132,399.818 690.591,399.623C692.05,399.427 693.57,399.33 695.148,399.33C699.588,399.33 702.925,400.403 705.16,402.55C707.394,404.697 708.512,408.082 708.512,412.703C708.512,417.056 707.412,420.362 705.212,422.622C703.013,424.881 699.794,426.011 695.555,426.011C695.062,426.011 694.618,426 694.221,425.979C693.825,425.957 693.395,425.931 692.932,425.899L692.932,436.785L686.387,436.785ZM695.657,420.009C697.844,420.009 699.47,419.447 700.532,418.324C701.595,417.201 702.127,415.36 702.127,412.803C702.127,410.176 701.605,408.274 700.562,407.098C699.519,405.921 697.911,405.332 695.739,405.332C695.177,405.332 694.679,405.351 694.244,405.389C693.81,405.426 693.372,405.494 692.932,405.592L692.932,419.829C693.368,419.894 693.803,419.94 694.236,419.968C694.67,419.995 695.143,420.009 695.657,420.009Z" style="fill:rgb(38,71,150);"/>
    </g>
    <g transform="matrix(1.989564,0,0,1.989564,-2635.206301,-2951.576243)">
        <path d="M1687.089,1714.977L1682.979,1727.442L1678.906,1727.442L1691.811,1689.006L1697.57,1689.006L1710.474,1727.442L1706.336,1727.442L1702.219,1714.977L1687.089,1714.977ZM1701.058,1711.464L1694.648,1692.054L1688.248,1711.464L1701.058,1711.464ZM1716.536,1702.601L1711.484,1702.601L1711.484,1699.26L1716.536,1699.26L1717.195,1689.006L1720.56,1689.006L1720.56,1699.26L1728.644,1699.26L1728.644,1702.601L1720.56,1702.601L1720.56,1718.328C1720.56,1720.591 1721,1722.168 1721.881,1723.061C1722.761,1723.953 1724.101,1724.4 1725.9,1724.4C1726.384,1724.4 1726.882,1724.365 1727.396,1724.295C1727.91,1724.226 1728.461,1724.128 1729.049,1724.002L1729.049,1727.46C1728.436,1727.601 1727.786,1727.714 1727.099,1727.799C1726.411,1727.884 1725.731,1727.926 1725.06,1727.926C1722.382,1727.926 1720.292,1727.223 1718.789,1725.815C1717.287,1724.408 1716.536,1722.112 1716.536,1718.927L1716.536,1702.601ZM1753.355,1706.068C1753.428,1706.731 1753.464,1707.447 1753.464,1708.215L1753.464,1727.442L1749.497,1727.442L1749.497,1708.509C1749.497,1706.217 1749.051,1704.636 1748.159,1703.766C1747.266,1702.897 1746.108,1702.462 1744.684,1702.462C1743.992,1702.462 1743.25,1702.587 1742.458,1702.838C1741.667,1703.088 1740.898,1703.496 1740.153,1704.059C1739.407,1704.623 1738.756,1705.379 1738.2,1706.327L1738.2,1727.442L1734.176,1727.442L1734.176,1699.26L1737.571,1699.26L1737.874,1702.451L1738.142,1702.451C1739.173,1701.222 1740.346,1700.311 1741.659,1699.72C1742.973,1699.127 1744.371,1698.831 1745.852,1698.831C1747.292,1698.831 1748.587,1699.128 1749.739,1699.721C1750.891,1700.314 1751.799,1701.296 1752.465,1702.666C1752.489,1702.715 1752.512,1702.764 1752.535,1702.815C1753.629,1701.462 1754.835,1700.489 1756.153,1699.894C1757.721,1699.185 1759.241,1698.831 1760.714,1698.831C1762.21,1698.831 1763.558,1699.131 1764.759,1699.73C1765.959,1700.328 1766.908,1701.322 1767.606,1702.711C1768.303,1704.1 1768.652,1705.978 1768.652,1708.346L1768.652,1727.442L1764.631,1727.442L1764.631,1708.509C1764.631,1706.217 1764.166,1704.636 1763.234,1703.766C1762.303,1702.897 1761.124,1702.462 1759.698,1702.462C1758.999,1702.462 1758.232,1702.594 1757.397,1702.857C1756.562,1703.121 1755.749,1703.571 1754.957,1704.209C1754.358,1704.69 1753.825,1705.31 1753.355,1706.068ZM1786.529,1727.936C1784.259,1727.936 1782.285,1727.441 1780.607,1726.45C1778.928,1725.458 1777.629,1723.894 1776.71,1721.757C1775.79,1719.62 1775.33,1716.832 1775.33,1713.391C1775.33,1709.947 1775.786,1707.155 1776.696,1705.016C1777.607,1702.876 1778.9,1701.311 1780.575,1700.319C1782.25,1699.327 1784.235,1698.831 1786.529,1698.831C1788.81,1698.831 1790.79,1699.328 1792.468,1700.322C1794.146,1701.315 1795.442,1702.88 1796.356,1705.017C1797.27,1707.153 1797.727,1709.938 1797.727,1713.371C1797.727,1716.805 1797.27,1719.594 1796.354,1721.736C1795.438,1723.878 1794.142,1725.447 1792.466,1726.443C1790.79,1727.438 1788.811,1727.936 1786.529,1727.936ZM1786.529,1724.657C1787.978,1724.657 1789.231,1724.323 1790.288,1723.654C1791.346,1722.985 1792.162,1721.836 1792.735,1720.206C1793.309,1718.576 1793.596,1716.327 1793.596,1713.459C1793.596,1710.532 1793.309,1708.245 1792.733,1706.599C1792.158,1704.952 1791.34,1703.793 1790.281,1703.12C1789.222,1702.447 1787.971,1702.111 1786.529,1702.111C1785.086,1702.111 1783.836,1702.443 1782.777,1703.108C1781.717,1703.773 1780.9,1704.919 1780.324,1706.548C1779.749,1708.177 1779.461,1710.429 1779.461,1713.304C1779.461,1716.224 1779.748,1718.509 1780.322,1720.158C1780.896,1721.807 1781.712,1722.969 1782.769,1723.644C1783.826,1724.32 1785.08,1724.657 1786.529,1724.657ZM1810.724,1727.936C1809.451,1727.936 1808.224,1727.845 1807.042,1727.662C1805.861,1727.479 1804.717,1727.206 1803.612,1726.844L1803.612,1723.506C1804.87,1723.896 1806.074,1724.183 1807.224,1724.366C1808.375,1724.549 1809.533,1724.64 1810.7,1724.64C1812.911,1724.64 1814.547,1724.225 1815.607,1723.393C1816.667,1722.562 1817.198,1721.391 1817.198,1719.882C1817.198,1718.555 1816.87,1717.55 1816.215,1716.866C1815.56,1716.182 1814.527,1715.669 1813.116,1715.326L1809.788,1714.564C1807.372,1713.976 1805.644,1713.052 1804.603,1711.791C1803.563,1710.53 1803.043,1708.909 1803.043,1706.927C1803.043,1704.562 1803.923,1702.622 1805.682,1701.106C1807.441,1699.589 1810.06,1698.831 1813.539,1698.831C1814.669,1698.831 1815.731,1698.892 1816.727,1699.015C1817.723,1699.137 1818.679,1699.317 1819.595,1699.557L1819.595,1702.895C1818.56,1702.613 1817.573,1702.415 1816.635,1702.3C1815.697,1702.185 1814.704,1702.127 1813.657,1702.127C1812.022,1702.127 1810.707,1702.339 1809.712,1702.761C1808.717,1703.183 1807.996,1703.75 1807.549,1704.463C1807.101,1705.176 1806.878,1705.967 1806.878,1706.836C1806.878,1707.994 1807.184,1708.927 1807.797,1709.636C1808.411,1710.345 1809.424,1710.876 1810.838,1711.23L1814.165,1711.991C1816.656,1712.584 1818.424,1713.506 1819.467,1714.758C1820.51,1716.009 1821.032,1717.661 1821.032,1719.711C1821.032,1722.261 1820.141,1724.269 1818.359,1725.736C1816.578,1727.203 1814.033,1727.936 1810.724,1727.936ZM1827.358,1738.869L1827.358,1699.26L1830.796,1699.26L1831.093,1702.267L1831.351,1702.267C1832.07,1701.274 1833.032,1700.453 1834.239,1699.804C1835.446,1699.156 1836.835,1698.831 1838.407,1698.831C1840.266,1698.831 1841.977,1699.274 1843.54,1700.159C1845.104,1701.043 1846.357,1702.507 1847.299,1704.549C1848.241,1706.592 1848.713,1709.354 1848.713,1712.835C1848.713,1716.253 1848.203,1719.077 1847.185,1721.308C1846.167,1723.539 1844.654,1725.199 1842.648,1726.29C1840.642,1727.381 1838.165,1727.926 1835.217,1727.926C1834.582,1727.926 1833.929,1727.898 1833.258,1727.843C1832.587,1727.787 1831.962,1727.724 1831.382,1727.653L1831.382,1738.869L1827.358,1738.869ZM1835.369,1724.617C1838.382,1724.617 1840.671,1723.746 1842.235,1722.003C1843.8,1720.261 1844.582,1717.33 1844.582,1713.21C1844.582,1710.312 1844.272,1708.079 1843.651,1706.51C1843.031,1704.941 1842.184,1703.851 1841.109,1703.242C1840.034,1702.633 1838.821,1702.328 1837.469,1702.328C1836.326,1702.328 1835.2,1702.6 1834.091,1703.145C1832.983,1703.69 1832.08,1704.535 1831.382,1705.681L1831.382,1724.22C1831.915,1724.334 1832.551,1724.429 1833.289,1724.504C1834.027,1724.579 1834.721,1724.617 1835.369,1724.617ZM1855.588,1727.442L1855.588,1685.474L1859.612,1685.474L1859.612,1702.399L1859.852,1702.399C1860.887,1701.211 1862.088,1700.319 1863.454,1699.724C1864.819,1699.129 1866.292,1698.831 1867.871,1698.831C1869.416,1698.831 1870.806,1699.131 1872.039,1699.73C1873.272,1700.328 1874.245,1701.32 1874.958,1702.706C1875.671,1704.092 1876.027,1705.965 1876.027,1708.326L1876.027,1727.442L1872.003,1727.442L1872.003,1708.502C1872.003,1706.219 1871.518,1704.648 1870.546,1703.789C1869.575,1702.93 1868.289,1702.5 1866.69,1702.5C1865.921,1702.5 1865.106,1702.619 1864.243,1702.857C1863.38,1703.095 1862.542,1703.487 1861.729,1704.033C1860.917,1704.579 1860.211,1705.308 1859.612,1706.221L1859.612,1727.442L1855.588,1727.442ZM1898.18,1711.242L1898.18,1708.604C1898.18,1706.931 1897.929,1705.631 1897.428,1704.701C1896.927,1703.772 1896.174,1703.121 1895.169,1702.747C1894.164,1702.374 1892.907,1702.188 1891.396,1702.188C1890.398,1702.188 1889.276,1702.281 1888.031,1702.469C1886.785,1702.657 1885.541,1702.96 1884.299,1703.38L1884.299,1700.006C1885.412,1699.626 1886.661,1699.335 1888.045,1699.134C1889.43,1698.932 1890.731,1698.831 1891.947,1698.831C1894.187,1698.831 1896.064,1699.139 1897.576,1699.754C1899.089,1700.369 1900.226,1701.403 1900.986,1702.855C1901.746,1704.307 1902.127,1706.283 1902.127,1708.78L1902.127,1727.442L1898.762,1727.442L1898.456,1724.32L1898.188,1724.32C1897.341,1725.508 1896.263,1726.402 1894.952,1727C1893.642,1727.599 1892.21,1727.898 1890.656,1727.898C1888.212,1727.898 1886.258,1727.225 1884.793,1725.88C1883.329,1724.535 1882.597,1722.657 1882.597,1720.247C1882.597,1717.764 1883.375,1715.828 1884.933,1714.437C1886.49,1713.047 1888.957,1712.192 1892.334,1711.874L1898.18,1711.242ZM1898.18,1714.021L1892.613,1714.608C1890.541,1714.815 1889.032,1715.352 1888.085,1716.218C1887.139,1717.085 1886.666,1718.288 1886.666,1719.828C1886.666,1721.456 1887.099,1722.678 1887.965,1723.494C1888.831,1724.311 1890.079,1724.719 1891.71,1724.719C1892.816,1724.719 1893.944,1724.463 1895.094,1723.951C1896.245,1723.439 1897.273,1722.54 1898.18,1721.255L1898.18,1714.021ZM1898.043,1693.076C1897.25,1693.076 1896.616,1692.848 1896.142,1692.392C1895.669,1691.936 1895.432,1691.318 1895.432,1690.539C1895.432,1689.746 1895.669,1689.118 1896.142,1688.656C1896.616,1688.195 1897.25,1687.964 1898.043,1687.964C1898.837,1687.964 1899.47,1688.195 1899.943,1688.657C1900.416,1689.119 1900.653,1689.746 1900.653,1690.539C1900.653,1691.318 1900.416,1691.936 1899.943,1692.392C1899.47,1692.848 1898.837,1693.076 1898.043,1693.076ZM1887.717,1693.076C1886.924,1693.076 1886.29,1692.848 1885.816,1692.392C1885.343,1691.936 1885.106,1691.318 1885.106,1690.539C1885.106,1689.746 1885.343,1689.118 1885.816,1688.656C1886.29,1688.195 1886.924,1687.964 1887.717,1687.964C1888.511,1687.964 1889.144,1688.195 1889.617,1688.657C1890.09,1689.119 1890.327,1689.746 1890.327,1690.539C1890.327,1691.318 1890.09,1691.936 1889.617,1692.392C1889.144,1692.848 1888.511,1693.076 1887.717,1693.076ZM1910.23,1727.442L1910.23,1699.26L1913.601,1699.26L1913.928,1703.065L1914.196,1703.065C1915.091,1701.69 1916.218,1700.666 1917.578,1699.994C1918.937,1699.322 1920.367,1698.985 1921.867,1698.985C1922.244,1698.985 1922.59,1698.999 1922.908,1699.026C1923.225,1699.054 1923.515,1699.093 1923.776,1699.145L1923.776,1702.931C1923.427,1702.869 1923.085,1702.831 1922.748,1702.818C1922.412,1702.804 1922.049,1702.797 1921.66,1702.797C1920.754,1702.797 1919.834,1702.948 1918.899,1703.251C1917.965,1703.553 1917.092,1704.008 1916.282,1704.614C1915.471,1705.221 1914.795,1705.971 1914.254,1706.865L1914.254,1727.442L1910.23,1727.442ZM1930.877,1714.716C1930.932,1717.016 1931.249,1718.866 1931.828,1720.265C1932.468,1721.812 1933.442,1722.919 1934.75,1723.586C1936.059,1724.253 1937.724,1724.587 1939.746,1724.587C1940.722,1724.587 1941.74,1724.496 1942.802,1724.313C1943.863,1724.131 1945.013,1723.859 1946.252,1723.499L1946.252,1726.867C1944.983,1727.246 1943.785,1727.519 1942.66,1727.686C1941.535,1727.853 1940.413,1727.936 1939.294,1727.936C1936.527,1727.936 1934.214,1727.449 1932.356,1726.474C1930.498,1725.499 1929.101,1723.941 1928.166,1721.801C1927.231,1719.661 1926.764,1716.837 1926.764,1713.328C1926.764,1709.95 1927.205,1707.192 1928.087,1705.054C1928.97,1702.916 1930.211,1701.345 1931.812,1700.34C1933.413,1699.334 1935.294,1698.831 1937.457,1698.831C1939.586,1698.831 1941.406,1699.333 1942.918,1700.338C1944.429,1701.342 1945.586,1702.917 1946.39,1705.063C1947.193,1707.208 1947.595,1709.992 1947.595,1713.415L1947.595,1714.716L1930.877,1714.716ZM1930.873,1711.898L1943.704,1711.898C1943.67,1709.45 1943.418,1707.506 1942.95,1706.064C1942.445,1704.509 1941.723,1703.41 1940.786,1702.767C1939.848,1702.124 1938.73,1701.803 1937.433,1701.803C1936.123,1701.803 1934.975,1702.123 1933.991,1702.764C1933.007,1703.404 1932.24,1704.502 1931.691,1706.057C1931.183,1707.499 1930.91,1709.446 1930.873,1711.898ZM1954.198,1727.442L1954.198,1699.26L1957.593,1699.26L1957.896,1702.422L1958.163,1702.422C1959.206,1701.27 1960.425,1700.384 1961.821,1699.763C1963.217,1699.142 1964.718,1698.831 1966.324,1698.831C1967.922,1698.831 1969.348,1699.131 1970.603,1699.73C1971.857,1700.328 1972.844,1701.318 1973.561,1702.699C1974.278,1704.08 1974.637,1705.939 1974.637,1708.278L1974.637,1727.442L1970.613,1727.442L1970.613,1708.491C1970.613,1706.217 1970.132,1704.644 1969.168,1703.771C1968.206,1702.898 1966.917,1702.462 1965.303,1702.462C1964.545,1702.462 1963.734,1702.582 1962.871,1702.821C1962.008,1703.06 1961.169,1703.455 1960.354,1704.004C1959.538,1704.553 1958.827,1705.289 1958.222,1706.211L1958.222,1727.442L1954.198,1727.442ZM1982.74,1738.869L1982.74,1699.26L1986.177,1699.26L1986.474,1702.267L1986.732,1702.267C1987.451,1701.274 1988.414,1700.453 1989.62,1699.804C1990.827,1699.156 1992.216,1698.831 1993.788,1698.831C1995.648,1698.831 1997.359,1699.274 1998.922,1700.159C2000.485,1701.043 2001.738,1702.507 2002.68,1704.549C2003.623,1706.592 2004.094,1709.354 2004.094,1712.835C2004.094,1716.253 2003.585,1719.077 2002.566,1721.308C2001.548,1723.539 2000.036,1725.199 1998.029,1726.29C1996.023,1727.381 1993.546,1727.926 1990.599,1727.926C1989.963,1727.926 1989.31,1727.898 1988.639,1727.843C1987.968,1727.787 1987.343,1727.724 1986.763,1727.653L1986.763,1738.869L1982.74,1738.869ZM1990.75,1724.617C1993.763,1724.617 1996.052,1723.746 1997.616,1722.003C1999.181,1720.261 1999.963,1717.33 1999.963,1713.21C1999.963,1710.312 1999.653,1708.079 1999.032,1706.51C1998.412,1704.941 1997.565,1703.851 1996.49,1703.242C1995.415,1702.633 1994.202,1702.328 1992.851,1702.328C1991.707,1702.328 1990.581,1702.6 1989.472,1703.145C1988.364,1703.69 1987.461,1704.535 1986.763,1705.681L1986.763,1724.22C1987.296,1724.334 1987.932,1724.429 1988.67,1724.504C1989.409,1724.579 1990.102,1724.617 1990.75,1724.617ZM2010.97,1727.442L2010.97,1685.474L2014.993,1685.474L2014.993,1702.399L2015.233,1702.399C2016.269,1701.211 2017.469,1700.319 2018.835,1699.724C2020.201,1699.129 2021.673,1698.831 2023.252,1698.831C2024.797,1698.831 2026.187,1699.131 2027.42,1699.73C2028.653,1700.328 2029.626,1701.32 2030.339,1702.706C2031.052,1704.092 2031.408,1705.965 2031.408,1708.326L2031.408,1727.442L2027.384,1727.442L2027.384,1708.502C2027.384,1706.219 2026.899,1704.648 2025.927,1703.789C2024.956,1702.93 2023.67,1702.5 2022.071,1702.5C2021.303,1702.5 2020.487,1702.619 2019.624,1702.857C2018.761,1703.095 2017.923,1703.487 2017.11,1704.033C2016.298,1704.579 2015.592,1705.308 2014.993,1706.221L2014.993,1727.442L2010.97,1727.442ZM2047.283,1727.442L2046.037,1727.442L2036.182,1699.26L2040.45,1699.26L2048.666,1723.951L2057.04,1699.26L2061.139,1699.26L2047.284,1738.869L2043.254,1738.869L2047.283,1727.442ZM2071.857,1727.936C2070.584,1727.936 2069.357,1727.845 2068.175,1727.662C2066.993,1727.479 2065.85,1727.206 2064.745,1726.844L2064.745,1723.506C2066.003,1723.896 2067.207,1724.183 2068.357,1724.366C2069.508,1724.549 2070.666,1724.64 2071.832,1724.64C2074.044,1724.64 2075.68,1724.225 2076.74,1723.393C2077.8,1722.562 2078.33,1721.391 2078.33,1719.882C2078.33,1718.555 2078.003,1717.55 2077.348,1716.866C2076.693,1716.182 2075.66,1715.669 2074.249,1715.326L2070.921,1714.564C2068.505,1713.976 2066.777,1713.052 2065.736,1711.791C2064.696,1710.53 2064.176,1708.909 2064.176,1706.927C2064.176,1704.562 2065.056,1702.622 2066.815,1701.106C2068.573,1699.589 2071.193,1698.831 2074.672,1698.831C2075.801,1698.831 2076.864,1698.892 2077.86,1699.015C2078.855,1699.137 2079.812,1699.317 2080.728,1699.557L2080.728,1702.895C2079.693,1702.613 2078.706,1702.415 2077.768,1702.3C2076.83,1702.185 2075.837,1702.127 2074.789,1702.127C2073.155,1702.127 2071.84,1702.339 2070.845,1702.761C2069.85,1703.183 2069.129,1703.75 2068.682,1704.463C2068.234,1705.176 2068.01,1705.967 2068.01,1706.836C2068.01,1707.994 2068.317,1708.927 2068.93,1709.636C2069.544,1710.345 2070.557,1710.876 2071.97,1711.23L2075.298,1711.991C2077.789,1712.584 2079.556,1713.506 2080.6,1714.758C2081.643,1716.009 2082.165,1717.661 2082.165,1719.711C2082.165,1722.261 2081.274,1724.269 2079.492,1725.736C2077.711,1727.203 2075.166,1727.936 2071.857,1727.936ZM2088.491,1727.442L2088.491,1699.26L2092.525,1699.26L2092.525,1727.442L2088.491,1727.442ZM2090.515,1693.132C2089.605,1693.132 2088.906,1692.9 2088.418,1692.435C2087.931,1691.97 2087.687,1691.338 2087.687,1690.539C2087.687,1689.723 2087.931,1689.08 2088.418,1688.611C2088.906,1688.142 2089.605,1687.907 2090.515,1687.907C2091.429,1687.907 2092.129,1688.142 2092.614,1688.611C2093.099,1689.08 2093.342,1689.723 2093.342,1690.539C2093.342,1691.338 2093.099,1691.97 2092.614,1692.435C2092.129,1692.9 2091.429,1693.132 2090.515,1693.132ZM2104.929,1714.693L2104.929,1727.442L2100.905,1727.442L2100.905,1685.474L2104.929,1685.474L2104.929,1711.332L2109.126,1711.332L2117.799,1699.26L2122.242,1699.26L2112.493,1712.951L2123.103,1727.442L2118.564,1727.442L2109.158,1714.693L2104.929,1714.693ZM1681.691,1671.333L1681.691,1632.897L1685.765,1632.897L1685.765,1667.71L1703.371,1667.71L1703.371,1671.333L1681.691,1671.333ZM1709.877,1658.607C1709.933,1660.907 1710.249,1662.757 1710.828,1664.157C1711.468,1665.703 1712.442,1666.81 1713.751,1667.478C1715.059,1668.145 1716.724,1668.478 1718.747,1668.478C1719.722,1668.478 1720.74,1668.387 1721.802,1668.204C1722.863,1668.022 1724.014,1667.75 1725.253,1667.39L1725.253,1670.758C1723.983,1671.137 1722.786,1671.41 1721.66,1671.577C1720.535,1671.744 1719.413,1671.828 1718.295,1671.828C1715.527,1671.828 1713.215,1671.34 1711.357,1670.365C1709.498,1669.39 1708.102,1667.832 1707.167,1665.692C1706.232,1663.552 1705.764,1660.728 1705.764,1657.219C1705.764,1653.841 1706.205,1651.083 1707.088,1648.945C1707.97,1646.807 1709.212,1645.236 1710.812,1644.231C1712.413,1643.225 1714.295,1642.722 1716.457,1642.722C1718.586,1642.722 1720.407,1643.225 1721.918,1644.229C1723.429,1645.234 1724.586,1646.808 1725.39,1648.954C1726.194,1651.099 1726.596,1653.883 1726.596,1657.306L1726.596,1658.607L1709.877,1658.607ZM1709.873,1655.789L1722.704,1655.789C1722.67,1653.341 1722.419,1651.397 1721.95,1649.956C1721.445,1648.4 1720.724,1647.301 1719.786,1646.658C1718.848,1646.015 1717.731,1645.694 1716.433,1645.694C1715.123,1645.694 1713.975,1646.014 1712.991,1646.655C1712.007,1647.295 1711.24,1648.393 1710.691,1649.948C1710.183,1651.39 1709.91,1653.337 1709.873,1655.789ZM1732.991,1671.333L1732.991,1643.151L1737.025,1643.151L1737.025,1671.333L1732.991,1671.333ZM1735.014,1637.024C1734.104,1637.024 1733.405,1636.791 1732.918,1636.326C1732.43,1635.861 1732.186,1635.229 1732.186,1634.43C1732.186,1633.614 1732.43,1632.971 1732.918,1632.502C1733.405,1632.033 1734.104,1631.798 1735.014,1631.798C1735.929,1631.798 1736.628,1632.033 1737.114,1632.502C1737.599,1632.971 1737.842,1633.614 1737.842,1634.43C1737.842,1635.229 1737.599,1635.861 1737.114,1636.326C1736.628,1636.791 1735.929,1637.024 1735.014,1637.024ZM1753.083,1671.817C1751.762,1671.817 1750.404,1671.713 1749.008,1671.505C1747.611,1671.296 1746.341,1670.999 1745.197,1670.614L1745.197,1629.365L1749.221,1629.365L1749.221,1645.963L1749.46,1645.963C1750.192,1645.043 1751.159,1644.274 1752.36,1643.653C1753.562,1643.033 1754.954,1642.722 1756.536,1642.722C1758.337,1642.722 1759.996,1643.168 1761.514,1644.058C1763.032,1644.948 1764.25,1646.415 1765.171,1648.459C1766.091,1650.502 1766.551,1653.258 1766.551,1656.726C1766.551,1661.857 1765.406,1665.656 1763.116,1668.123C1760.825,1670.589 1757.481,1671.821 1753.083,1671.817ZM1753.352,1668.511C1756.291,1668.511 1758.537,1667.64 1760.09,1665.896C1761.644,1664.152 1762.42,1661.222 1762.42,1657.105C1762.42,1654.209 1762.109,1651.977 1761.487,1650.408C1760.865,1648.84 1760.018,1647.751 1758.946,1647.143C1757.874,1646.534 1756.663,1646.229 1755.312,1646.229C1754.154,1646.229 1753.024,1646.491 1751.921,1647.016C1750.818,1647.541 1749.918,1648.338 1749.221,1649.409L1749.221,1667.957C1749.754,1668.111 1750.391,1668.243 1751.131,1668.35C1751.873,1668.458 1752.613,1668.511 1753.352,1668.511ZM1773.297,1671.333L1773.297,1643.151L1776.691,1643.151L1776.994,1646.313L1777.262,1646.313C1778.305,1645.161 1779.524,1644.275 1780.92,1643.654C1782.315,1643.033 1783.816,1642.722 1785.423,1642.722C1787.02,1642.722 1788.447,1643.022 1789.701,1643.621C1790.956,1644.219 1791.942,1645.209 1792.659,1646.59C1793.377,1647.971 1793.736,1649.831 1793.736,1652.169L1793.736,1671.333L1789.712,1671.333L1789.712,1652.382C1789.712,1650.108 1789.23,1648.535 1788.267,1647.662C1787.304,1646.789 1786.016,1646.353 1784.402,1646.353C1783.643,1646.353 1782.833,1646.473 1781.97,1646.712C1781.107,1646.952 1780.268,1647.346 1779.452,1647.895C1778.637,1648.444 1777.926,1649.18 1777.321,1650.102L1777.321,1671.333L1773.297,1671.333ZM1801.631,1671.333L1801.631,1643.151L1805.665,1643.151L1805.665,1671.333L1801.631,1671.333ZM1803.654,1637.024C1802.744,1637.024 1802.045,1636.791 1801.558,1636.326C1801.07,1635.861 1800.826,1635.229 1800.826,1634.43C1800.826,1633.614 1801.07,1632.971 1801.558,1632.502C1802.045,1632.033 1802.744,1631.798 1803.654,1631.798C1804.569,1631.798 1805.268,1632.033 1805.753,1632.502C1806.239,1632.971 1806.481,1633.614 1806.481,1634.43C1806.481,1635.229 1806.239,1635.861 1805.753,1636.326C1805.268,1636.791 1804.569,1637.024 1803.654,1637.024ZM1816.568,1667.992L1830.967,1667.992L1830.967,1671.333L1811.698,1671.333L1811.698,1668.856L1825.817,1646.493L1811.977,1646.493L1811.977,1643.151L1830.688,1643.151L1830.688,1645.628L1816.568,1667.992ZM1835.464,1658.434L1835.464,1655.012L1848.26,1655.012L1848.26,1658.434L1835.464,1658.434ZM1855.589,1671.333L1855.589,1632.897L1859.663,1632.897L1859.663,1671.333L1855.589,1671.333ZM1868.271,1671.333L1868.271,1643.151L1871.665,1643.151L1871.968,1646.313L1872.236,1646.313C1873.279,1645.161 1874.498,1644.275 1875.894,1643.654C1877.289,1643.033 1878.79,1642.722 1880.397,1642.722C1881.994,1642.722 1883.42,1643.022 1884.675,1643.621C1885.93,1644.219 1886.916,1645.209 1887.633,1646.59C1888.351,1647.971 1888.71,1649.831 1888.71,1652.169L1888.71,1671.333L1884.686,1671.333L1884.686,1652.382C1884.686,1650.108 1884.204,1648.535 1883.241,1647.662C1882.278,1646.789 1880.99,1646.353 1879.376,1646.353C1878.617,1646.353 1877.807,1646.473 1876.944,1646.712C1876.081,1646.952 1875.242,1647.346 1874.426,1647.895C1873.611,1648.444 1872.9,1649.18 1872.295,1650.102L1872.295,1671.333L1868.271,1671.333ZM1902.642,1671.828C1901.37,1671.828 1900.142,1671.736 1898.961,1671.553C1897.779,1671.37 1896.636,1671.097 1895.53,1670.735L1895.53,1667.397C1896.789,1667.787 1897.993,1668.074 1899.143,1668.257C1900.293,1668.44 1901.451,1668.531 1902.618,1668.531C1904.83,1668.531 1906.466,1668.116 1907.526,1667.284C1908.586,1666.453 1909.116,1665.282 1909.116,1663.773C1909.116,1662.446 1908.788,1661.441 1908.133,1660.757C1907.479,1660.073 1906.446,1659.56 1905.034,1659.217L1901.707,1658.456C1899.29,1657.867 1897.562,1656.943 1896.522,1655.682C1895.482,1654.421 1894.962,1652.8 1894.962,1650.818C1894.962,1648.453 1895.841,1646.513 1897.6,1644.997C1899.359,1643.481 1901.978,1642.722 1905.458,1642.722C1906.587,1642.722 1907.649,1642.784 1908.645,1642.906C1909.641,1643.028 1910.597,1643.209 1911.514,1643.448L1911.514,1646.786C1910.478,1646.505 1909.491,1646.306 1908.553,1646.191C1907.615,1646.076 1906.622,1646.019 1905.575,1646.019C1903.94,1646.019 1902.625,1646.23 1901.63,1646.652C1900.636,1647.074 1899.914,1647.641 1899.467,1648.354C1899.02,1649.067 1898.796,1649.858 1898.796,1650.727C1898.796,1651.885 1899.102,1652.818 1899.716,1653.527C1900.329,1654.236 1901.342,1654.768 1902.756,1655.121L1906.084,1655.882C1908.575,1656.475 1910.342,1657.397 1911.385,1658.649C1912.428,1659.9 1912.95,1661.552 1912.95,1663.603C1912.95,1666.152 1912.059,1668.161 1910.278,1669.627C1908.496,1671.094 1905.951,1671.828 1902.642,1671.828ZM1920.361,1646.493L1915.309,1646.493L1915.309,1643.151L1920.361,1643.151L1921.02,1632.897L1924.385,1632.897L1924.385,1643.151L1932.469,1643.151L1932.469,1646.493L1924.385,1646.493L1924.385,1662.219C1924.385,1664.482 1924.825,1666.06 1925.706,1666.952C1926.586,1667.844 1927.926,1668.291 1929.725,1668.291C1930.209,1668.291 1930.707,1668.256 1931.221,1668.186C1931.735,1668.117 1932.286,1668.019 1932.874,1667.893L1932.874,1671.352C1932.261,1671.493 1931.611,1671.605 1930.924,1671.69C1930.236,1671.775 1929.556,1671.817 1928.885,1671.817C1926.207,1671.817 1924.117,1671.114 1922.614,1669.707C1921.112,1668.299 1920.361,1666.003 1920.361,1662.818L1920.361,1646.493ZM1937.872,1671.333L1937.872,1643.151L1941.906,1643.151L1941.906,1671.333L1937.872,1671.333ZM1939.895,1637.024C1938.985,1637.024 1938.286,1636.791 1937.799,1636.326C1937.311,1635.861 1937.067,1635.229 1937.067,1634.43C1937.067,1633.614 1937.311,1632.971 1937.799,1632.502C1938.286,1632.033 1938.985,1631.798 1939.895,1631.798C1940.81,1631.798 1941.509,1632.033 1941.994,1632.502C1942.48,1632.971 1942.722,1633.614 1942.722,1634.43C1942.722,1635.229 1942.48,1635.861 1941.994,1636.326C1941.509,1636.791 1940.81,1637.024 1939.895,1637.024ZM1951.655,1646.493L1946.603,1646.493L1946.603,1643.151L1951.655,1643.151L1952.315,1632.897L1955.679,1632.897L1955.679,1643.151L1963.763,1643.151L1963.763,1646.493L1955.679,1646.493L1955.679,1662.219C1955.679,1664.482 1956.119,1666.06 1957,1666.952C1957.881,1667.844 1959.221,1668.291 1961.02,1668.291C1961.503,1668.291 1962.002,1668.256 1962.516,1668.186C1963.03,1668.117 1963.58,1668.019 1964.168,1667.893L1964.168,1671.352C1963.556,1671.493 1962.906,1671.605 1962.218,1671.69C1961.53,1671.775 1960.851,1671.817 1960.179,1671.817C1957.501,1671.817 1955.411,1671.114 1953.909,1669.707C1952.407,1668.299 1951.655,1666.003 1951.655,1662.818L1951.655,1646.493ZM1977.079,1671.811C1975.503,1671.811 1974.092,1671.512 1972.847,1670.913C1971.602,1670.314 1970.62,1669.323 1969.902,1667.941C1969.183,1666.559 1968.824,1664.69 1968.824,1662.337L1968.824,1643.151L1972.847,1643.151L1972.847,1662.16C1972.847,1664.424 1973.331,1665.994 1974.3,1666.868C1975.269,1667.743 1976.516,1668.18 1978.041,1668.18C1978.777,1668.18 1979.571,1668.058 1980.423,1667.814C1981.276,1667.57 1982.103,1667.174 1982.904,1666.627C1983.704,1666.079 1984.399,1665.354 1984.988,1664.45L1984.988,1643.151L1989.012,1643.151L1989.012,1671.333L1985.618,1671.333L1985.315,1668.259L1985.053,1668.259C1983.986,1669.446 1982.762,1670.335 1981.384,1670.925C1980.006,1671.516 1978.571,1671.811 1977.079,1671.811ZM1998.896,1646.493L1993.843,1646.493L1993.843,1643.151L1998.896,1643.151L1999.555,1632.897L2002.919,1632.897L2002.919,1643.151L2011.004,1643.151L2011.004,1646.493L2002.919,1646.493L2002.919,1662.219C2002.919,1664.482 2003.36,1666.06 2004.24,1666.952C2005.121,1667.844 2006.461,1668.291 2008.26,1668.291C2008.743,1668.291 2009.242,1668.256 2009.756,1668.186C2010.27,1668.117 2010.821,1668.019 2011.409,1667.893L2011.409,1671.352C2010.796,1671.493 2010.146,1671.605 2009.458,1671.69C2008.771,1671.775 2008.091,1671.817 2007.419,1671.817C2004.741,1671.817 2002.651,1671.114 2001.149,1669.707C1999.647,1668.299 1998.896,1666.003 1998.896,1662.818L1998.896,1646.493ZM2030.865,1646.493L2025.813,1646.493L2025.813,1643.151L2030.865,1643.151L2030.865,1638.265C2030.865,1636.216 2031.223,1634.493 2031.937,1633.096C2032.652,1631.699 2033.715,1630.641 2035.127,1629.923C2036.539,1629.205 2038.295,1628.846 2040.394,1628.846C2040.957,1628.846 2041.547,1628.868 2042.164,1628.914C2042.783,1628.959 2043.378,1629.034 2043.951,1629.138L2043.951,1632.556C2043.41,1632.459 2042.885,1632.387 2042.377,1632.338C2041.869,1632.29 2041.331,1632.266 2040.762,1632.266C2038.78,1632.266 2037.301,1632.715 2036.324,1633.614C2035.347,1634.512 2034.859,1636.008 2034.859,1638.102L2034.859,1643.151L2042.943,1643.151L2042.943,1646.493L2034.859,1646.493L2034.859,1671.333L2030.865,1671.333L2030.865,1646.493ZM2054.912,1671.811C2053.336,1671.811 2051.925,1671.512 2050.68,1670.913C2049.436,1670.314 2048.454,1669.323 2047.735,1667.941C2047.016,1666.559 2046.657,1664.69 2046.657,1662.337L2046.657,1643.151L2050.68,1643.151L2050.68,1662.16C2050.68,1664.424 2051.165,1665.994 2052.133,1666.868C2053.102,1667.743 2054.349,1668.18 2055.874,1668.18C2056.61,1668.18 2057.404,1668.058 2058.257,1667.814C2059.109,1667.57 2059.936,1667.174 2060.737,1666.627C2061.538,1666.079 2062.233,1665.354 2062.822,1664.45L2062.822,1643.151L2066.846,1643.151L2066.846,1671.333L2063.451,1671.333L2063.148,1668.259L2062.887,1668.259C2061.819,1669.446 2060.596,1670.335 2059.217,1670.925C2057.839,1671.516 2056.404,1671.811 2054.912,1671.811ZM2061.926,1636.967C2061.132,1636.967 2060.499,1636.739 2060.025,1636.283C2059.551,1635.828 2059.315,1635.21 2059.315,1634.43C2059.315,1633.637 2059.551,1633.009 2060.025,1632.548C2060.499,1632.086 2061.132,1631.855 2061.926,1631.855C2062.719,1631.855 2063.353,1632.086 2063.825,1632.548C2064.299,1633.01 2064.535,1633.637 2064.535,1634.43C2064.535,1635.209 2064.299,1635.827 2063.825,1636.283C2063.353,1636.739 2062.719,1636.967 2061.926,1636.967ZM2051.6,1636.967C2050.806,1636.967 2050.172,1636.739 2049.699,1636.283C2049.225,1635.828 2048.989,1635.21 2048.989,1634.43C2048.989,1633.637 2049.225,1633.009 2049.699,1632.548C2050.172,1632.086 2050.806,1631.855 2051.6,1631.855C2052.393,1631.855 2053.026,1632.086 2053.499,1632.548C2053.972,1633.01 2054.209,1633.637 2054.209,1634.43C2054.209,1635.209 2053.972,1635.827 2053.499,1636.283C2053.026,1636.739 2052.393,1636.967 2051.6,1636.967ZM2074.996,1671.333L2074.996,1643.151L2078.367,1643.151L2078.693,1646.956L2078.961,1646.956C2079.856,1645.581 2080.984,1644.557 2082.343,1643.885C2083.703,1643.213 2085.132,1642.877 2086.632,1642.877C2087.009,1642.877 2087.356,1642.89 2087.673,1642.918C2087.991,1642.945 2088.28,1642.985 2088.541,1643.036L2088.541,1646.822C2088.193,1646.76 2087.85,1646.722 2087.514,1646.709C2087.177,1646.695 2086.815,1646.688 2086.426,1646.688C2085.52,1646.688 2084.599,1646.839 2083.665,1647.142C2082.73,1647.444 2081.858,1647.899 2081.047,1648.505C2080.236,1649.112 2079.56,1649.862 2079.019,1650.756L2079.019,1671.333L2074.996,1671.333Z" style="fill:rgb(38,71,150);"/>
    </g>
</svg>
